<?xml version="1.0" encoding="utf-8"?><svg width="auto" height="3020" style="overflow:visible " version="1.1" xmlns="http://www.w3.org/2000/svg"><rect x="20" y="20" width="200" height="40" style="fill:white;stroke:black;stroke-width:1" /><text x="30" y="30" font-size="10" style="fill:blue">xs:schema</text><text x="30" y="40" font-size="8" style="fill:black">xmlns: http://www.uniovi.es</text><text x="30" y="50" font-size="8" style="fill:black">elementFormDefault: qualified</text><text x="30" y="60" font-size="8" style="fill:black">targetNamespace: http://www.uniovi.es</text><text x="30" y="70" font-size="8" style="fill:black">xmlns:xs: http://www.w3.org/2001/XMLSchema</text><rect x="240" y="20" width="200" height="40" style="fill:white;stroke:black;stroke-width:1" /><text x="250" y="30" font-size="10" style="fill:blue">xs:element</text><path d="M220 40 C240 40 220 40 240 40" style="fill:transparent;stroke:black" /><text x="250" y="40" font-size="8" style="fill:black">name: persona</text><rect x="460" y="20" width="200" height="40" style="fill:white;stroke:black;stroke-width:1" /><text x="470" y="30" font-size="10" style="fill:blue">xs:complexType</text><path d="M440 40 C460 40 440 40 460 40" style="fill:transparent;stroke:black" /><rect x="680" y="20" width="200" height="40" style="fill:white;stroke:black;stroke-width:1" /><text x="690" y="30" font-size="10" style="fill:blue">xs:sequence</text><path d="M660 40 C680 40 660 40 680 40" style="fill:transparent;stroke:black" /><rect x="900" y="20" width="200" height="40" style="fill:white;stroke:black;stroke-width:1" /><text x="910" y="30" font-size="10" style="fill:blue">xs:element</text><path d="M880 40 C900 40 880 40 900 40" style="fill:transparent;stroke:black" /><text x="910" y="40" font-size="8" style="fill:black">ref: lugarNacimiento</text><rect x="900" y="70" width="200" height="40" style="fill:white;stroke:black;stroke-width:1" /><text x="910" y="80" font-size="10" style="fill:blue">xs:element</text><path d="M880 40 C900 40 880 90 900 90" style="fill:transparent;stroke:black" /><text x="910" y="90" font-size="8" style="fill:black">ref: lugarResidencia</text><rect x="900" y="120" width="200" height="40" style="fill:white;stroke:black;stroke-width:1" /><text x="910" y="130" font-size="10" style="fill:blue">xs:element</text><path d="M880 40 C900 40 880 140 900 140" style="fill:transparent;stroke:black" /><text x="910" y="140" font-size="8" style="fill:black">ref: fotografias</text><rect x="900" y="170" width="200" height="40" style="fill:white;stroke:black;stroke-width:1" /><text x="910" y="180" font-size="10" style="fill:blue">xs:element</text><path d="M880 40 C900 40 880 190 900 190" style="fill:transparent;stroke:black" /><text x="910" y="190" font-size="8" style="fill:black">ref: videos</text><rect x="900" y="220" width="200" height="40" style="fill:white;stroke:black;stroke-width:1" /><text x="910" y="230" font-size="10" style="fill:blue">xs:element</text><path d="M880 40 C900 40 880 240 900 240" style="fill:transparent;stroke:black" /><text x="910" y="240" font-size="8" style="fill:black">ref: comentarios</text><rect x="900" y="270" width="200" height="40" style="fill:white;stroke:black;stroke-width:1" /><text x="910" y="280" font-size="10" style="fill:blue">xs:sequence</text><path d="M880 40 C900 40 880 290 900 290" style="fill:transparent;stroke:black" /><text x="910" y="290" font-size="8" style="fill:black">minOccurs: 0</text><text x="910" y="300" font-size="8" style="fill:black">maxOccurs: 1</text><rect x="1120" y="270" width="200" height="40" style="fill:white;stroke:black;stroke-width:1" /><text x="1130" y="280" font-size="10" style="fill:blue">xs:element</text><path d="M1100 290 C1120 290 1100 290 1120 290" style="fill:transparent;stroke:black" /><text x="1130" y="290" font-size="8" style="fill:black">ref: persona</text><rect x="1120" y="320" width="200" height="40" style="fill:white;stroke:black;stroke-width:1" /><text x="1130" y="330" font-size="10" style="fill:blue">xs:element</text><path d="M1100 290 C1120 290 1100 340 1120 340" style="fill:transparent;stroke:black" /><text x="1130" y="340" font-size="8" style="fill:black">ref: persona</text><rect x="1120" y="370" width="200" height="40" style="fill:white;stroke:black;stroke-width:1" /><text x="1130" y="380" font-size="10" style="fill:blue">xs:element</text><path d="M1100 290 C1120 290 1100 390 1120 390" style="fill:transparent;stroke:black" /><text x="1130" y="390" font-size="8" style="fill:black">ref: persona</text><rect x="680" y="520" width="200" height="40" style="fill:white;stroke:black;stroke-width:1" /><text x="690" y="530" font-size="10" style="fill:blue">xs:attribute</text><path d="M660 40 C680 40 660 540 680 540" style="fill:transparent;stroke:black" /><text x="690" y="540" font-size="8" style="fill:black">name: nombre</text><text x="690" y="550" font-size="8" style="fill:black">type: xs:string</text><text x="690" y="560" font-size="8" style="fill:black">use: required</text><rect x="680" y="570" width="200" height="40" style="fill:white;stroke:black;stroke-width:1" /><text x="690" y="580" font-size="10" style="fill:blue">xs:attribute</text><path d="M660 40 C680 40 660 590 680 590" style="fill:transparent;stroke:black" /><text x="690" y="590" font-size="8" style="fill:black">name: apellidos</text><text x="690" y="600" font-size="8" style="fill:black">type: xs:string</text><text x="690" y="610" font-size="8" style="fill:black">use: required</text><rect x="680" y="620" width="200" height="40" style="fill:white;stroke:black;stroke-width:1" /><text x="690" y="630" font-size="10" style="fill:blue">xs:attribute</text><path d="M660 40 C680 40 660 640 680 640" style="fill:transparent;stroke:black" /><text x="690" y="640" font-size="8" style="fill:black">name: fechaNacimiento</text><text x="690" y="650" font-size="8" style="fill:black">type: xs:date</text><text x="690" y="660" font-size="8" style="fill:black">use: required</text><rect x="240" y="770" width="200" height="40" style="fill:white;stroke:black;stroke-width:1" /><text x="250" y="780" font-size="10" style="fill:blue">xs:element</text><path d="M220 40 C240 40 220 790 240 790" style="fill:transparent;stroke:black" /><text x="250" y="790" font-size="8" style="fill:black">name: lugarNacimiento</text><rect x="460" y="770" width="200" height="40" style="fill:white;stroke:black;stroke-width:1" /><text x="470" y="780" font-size="10" style="fill:blue">xs:complexType</text><path d="M440 790 C460 790 440 790 460 790" style="fill:transparent;stroke:black" /><rect x="680" y="770" width="200" height="40" style="fill:white;stroke:black;stroke-width:1" /><text x="690" y="780" font-size="10" style="fill:blue">xs:sequence</text><path d="M660 790 C680 790 660 790 680 790" style="fill:transparent;stroke:black" /><rect x="900" y="770" width="200" height="40" style="fill:white;stroke:black;stroke-width:1" /><text x="910" y="780" font-size="10" style="fill:blue">xs:element</text><path d="M880 790 C900 790 880 790 900 790" style="fill:transparent;stroke:black" /><text x="910" y="790" font-size="8" style="fill:black">ref: coordenadas</text><rect x="680" y="870" width="200" height="40" style="fill:white;stroke:black;stroke-width:1" /><text x="690" y="880" font-size="10" style="fill:blue">xs:attribute</text><path d="M660 790 C680 790 660 890 680 890" style="fill:transparent;stroke:black" /><text x="690" y="890" font-size="8" style="fill:black">name: nombre</text><text x="690" y="900" font-size="8" style="fill:black">type: xs:string</text><text x="690" y="910" font-size="8" style="fill:black">use: required</text><rect x="240" y="1020" width="200" height="40" style="fill:white;stroke:black;stroke-width:1" /><text x="250" y="1030" font-size="10" style="fill:blue">xs:element</text><path d="M220 40 C240 40 220 1040 240 1040" style="fill:transparent;stroke:black" /><text x="250" y="1040" font-size="8" style="fill:black">name: lugarResidencia</text><rect x="460" y="1020" width="200" height="40" style="fill:white;stroke:black;stroke-width:1" /><text x="470" y="1030" font-size="10" style="fill:blue">xs:complexType</text><path d="M440 1040 C460 1040 440 1040 460 1040" style="fill:transparent;stroke:black" /><rect x="680" y="1020" width="200" height="40" style="fill:white;stroke:black;stroke-width:1" /><text x="690" y="1030" font-size="10" style="fill:blue">xs:sequence</text><path d="M660 1040 C680 1040 660 1040 680 1040" style="fill:transparent;stroke:black" /><rect x="900" y="1020" width="200" height="40" style="fill:white;stroke:black;stroke-width:1" /><text x="910" y="1030" font-size="10" style="fill:blue">xs:element</text><path d="M880 1040 C900 1040 880 1040 900 1040" style="fill:transparent;stroke:black" /><text x="910" y="1040" font-size="8" style="fill:black">ref: coordenadas</text><rect x="680" y="1120" width="200" height="40" style="fill:white;stroke:black;stroke-width:1" /><text x="690" y="1130" font-size="10" style="fill:blue">xs:attribute</text><path d="M660 1040 C680 1040 660 1140 680 1140" style="fill:transparent;stroke:black" /><text x="690" y="1140" font-size="8" style="fill:black">name: nombre</text><text x="690" y="1150" font-size="8" style="fill:black">type: xs:string</text><text x="690" y="1160" font-size="8" style="fill:black">use: required</text><rect x="240" y="1270" width="200" height="40" style="fill:white;stroke:black;stroke-width:1" /><text x="250" y="1280" font-size="10" style="fill:blue">xs:element</text><path d="M220 40 C240 40 220 1290 240 1290" style="fill:transparent;stroke:black" /><text x="250" y="1290" font-size="8" style="fill:black">name: coordenadas</text><rect x="460" y="1270" width="200" height="40" style="fill:white;stroke:black;stroke-width:1" /><text x="470" y="1280" font-size="10" style="fill:blue">xs:complexType</text><path d="M440 1290 C460 1290 440 1290 460 1290" style="fill:transparent;stroke:black" /><rect x="680" y="1270" width="200" height="40" style="fill:white;stroke:black;stroke-width:1" /><text x="690" y="1280" font-size="10" style="fill:blue">xs:simpleContent</text><path d="M660 1290 C680 1290 660 1290 680 1290" style="fill:transparent;stroke:black" /><rect x="900" y="1270" width="200" height="40" style="fill:white;stroke:black;stroke-width:1" /><text x="910" y="1280" font-size="10" style="fill:blue">xs:extension</text><path d="M880 1290 C900 1290 880 1290 900 1290" style="fill:transparent;stroke:black" /><text x="910" y="1290" font-size="8" style="fill:black">base: xs:string</text><rect x="1120" y="1270" width="200" height="40" style="fill:white;stroke:black;stroke-width:1" /><text x="1130" y="1280" font-size="10" style="fill:blue">xs:attribute</text><path d="M1100 1290 C1120 1290 1100 1290 1120 1290" style="fill:transparent;stroke:black" /><text x="1130" y="1290" font-size="8" style="fill:black">name: latitud</text><text x="1130" y="1300" font-size="8" style="fill:black">type: xs:decimal</text><text x="1130" y="1310" font-size="8" style="fill:black">use: required</text><rect x="1120" y="1320" width="200" height="40" style="fill:white;stroke:black;stroke-width:1" /><text x="1130" y="1330" font-size="10" style="fill:blue">xs:attribute</text><path d="M1100 1290 C1120 1290 1100 1340 1120 1340" style="fill:transparent;stroke:black" /><text x="1130" y="1340" font-size="8" style="fill:black">name: longitud</text><text x="1130" y="1350" font-size="8" style="fill:black">type: xs:decimal</text><text x="1130" y="1360" font-size="8" style="fill:black">use: required</text><rect x="1120" y="1370" width="200" height="40" style="fill:white;stroke:black;stroke-width:1" /><text x="1130" y="1380" font-size="10" style="fill:blue">xs:attribute</text><path d="M1100 1290 C1120 1290 1100 1390 1120 1390" style="fill:transparent;stroke:black" /><text x="1130" y="1390" font-size="8" style="fill:black">name: altitud</text><text x="1130" y="1400" font-size="8" style="fill:black">type: xs:integer</text><text x="1130" y="1410" font-size="8" style="fill:black">use: required</text><rect x="240" y="1620" width="200" height="40" style="fill:white;stroke:black;stroke-width:1" /><text x="250" y="1630" font-size="10" style="fill:blue">xs:element</text><path d="M220 40 C240 40 220 1640 240 1640" style="fill:transparent;stroke:black" /><text x="250" y="1640" font-size="8" style="fill:black">name: fotografias</text><rect x="460" y="1620" width="200" height="40" style="fill:white;stroke:black;stroke-width:1" /><text x="470" y="1630" font-size="10" style="fill:blue">xs:complexType</text><path d="M440 1640 C460 1640 440 1640 460 1640" style="fill:transparent;stroke:black" /><rect x="680" y="1620" width="200" height="40" style="fill:white;stroke:black;stroke-width:1" /><text x="690" y="1630" font-size="10" style="fill:blue">xs:sequence</text><path d="M660 1640 C680 1640 660 1640 680 1640" style="fill:transparent;stroke:black" /><rect x="900" y="1620" width="200" height="40" style="fill:white;stroke:black;stroke-width:1" /><text x="910" y="1630" font-size="10" style="fill:blue">xs:element</text><path d="M880 1640 C900 1640 880 1640 900 1640" style="fill:transparent;stroke:black" /><text x="910" y="1640" font-size="8" style="fill:black">minOccurs: 1</text><text x="910" y="1650" font-size="8" style="fill:black">maxOccurs: unbounded</text><text x="910" y="1660" font-size="8" style="fill:black">ref: fotografia</text><rect x="240" y="1820" width="200" height="40" style="fill:white;stroke:black;stroke-width:1" /><text x="250" y="1830" font-size="10" style="fill:blue">xs:element</text><path d="M220 40 C240 40 220 1840 240 1840" style="fill:transparent;stroke:black" /><text x="250" y="1840" font-size="8" style="fill:black">name: fotografia</text><rect x="460" y="1820" width="200" height="40" style="fill:white;stroke:black;stroke-width:1" /><text x="470" y="1830" font-size="10" style="fill:blue">xs:complexType</text><path d="M440 1840 C460 1840 440 1840 460 1840" style="fill:transparent;stroke:black" /><rect x="680" y="1820" width="200" height="40" style="fill:white;stroke:black;stroke-width:1" /><text x="690" y="1830" font-size="10" style="fill:blue">xs:simpleContent</text><path d="M660 1840 C680 1840 660 1840 680 1840" style="fill:transparent;stroke:black" /><rect x="900" y="1820" width="200" height="40" style="fill:white;stroke:black;stroke-width:1" /><text x="910" y="1830" font-size="10" style="fill:blue">xs:extension</text><path d="M880 1840 C900 1840 880 1840 900 1840" style="fill:transparent;stroke:black" /><text x="910" y="1840" font-size="8" style="fill:black">base: xs:string</text><rect x="1120" y="1820" width="200" height="40" style="fill:white;stroke:black;stroke-width:1" /><text x="1130" y="1830" font-size="10" style="fill:blue">xs:attribute</text><path d="M1100 1840 C1120 1840 1100 1840 1120 1840" style="fill:transparent;stroke:black" /><text x="1130" y="1840" font-size="8" style="fill:black">name: enlace</text><text x="1130" y="1850" font-size="8" style="fill:black">type: xs:string</text><text x="1130" y="1860" font-size="8" style="fill:black">use: required</text><rect x="240" y="2070" width="200" height="40" style="fill:white;stroke:black;stroke-width:1" /><text x="250" y="2080" font-size="10" style="fill:blue">xs:element</text><path d="M220 40 C240 40 220 2090 240 2090" style="fill:transparent;stroke:black" /><text x="250" y="2090" font-size="8" style="fill:black">name: videos</text><rect x="460" y="2070" width="200" height="40" style="fill:white;stroke:black;stroke-width:1" /><text x="470" y="2080" font-size="10" style="fill:blue">xs:complexType</text><path d="M440 2090 C460 2090 440 2090 460 2090" style="fill:transparent;stroke:black" /><rect x="680" y="2070" width="200" height="40" style="fill:white;stroke:black;stroke-width:1" /><text x="690" y="2080" font-size="10" style="fill:blue">xs:sequence</text><path d="M660 2090 C680 2090 660 2090 680 2090" style="fill:transparent;stroke:black" /><rect x="900" y="2070" width="200" height="40" style="fill:white;stroke:black;stroke-width:1" /><text x="910" y="2080" font-size="10" style="fill:blue">xs:element</text><path d="M880 2090 C900 2090 880 2090 900 2090" style="fill:transparent;stroke:black" /><text x="910" y="2090" font-size="8" style="fill:black">minOccurs: 0</text><text x="910" y="2100" font-size="8" style="fill:black">maxOccurs: 3</text><text x="910" y="2110" font-size="8" style="fill:black">ref: video</text><rect x="240" y="2270" width="200" height="40" style="fill:white;stroke:black;stroke-width:1" /><text x="250" y="2280" font-size="10" style="fill:blue">xs:element</text><path d="M220 40 C240 40 220 2290 240 2290" style="fill:transparent;stroke:black" /><text x="250" y="2290" font-size="8" style="fill:black">name: video</text><rect x="460" y="2270" width="200" height="40" style="fill:white;stroke:black;stroke-width:1" /><text x="470" y="2280" font-size="10" style="fill:blue">xs:complexType</text><path d="M440 2290 C460 2290 440 2290 460 2290" style="fill:transparent;stroke:black" /><rect x="680" y="2270" width="200" height="40" style="fill:white;stroke:black;stroke-width:1" /><text x="690" y="2280" font-size="10" style="fill:blue">xs:simpleContent</text><path d="M660 2290 C680 2290 660 2290 680 2290" style="fill:transparent;stroke:black" /><rect x="900" y="2270" width="200" height="40" style="fill:white;stroke:black;stroke-width:1" /><text x="910" y="2280" font-size="10" style="fill:blue">xs:extension</text><path d="M880 2290 C900 2290 880 2290 900 2290" style="fill:transparent;stroke:black" /><text x="910" y="2290" font-size="8" style="fill:black">base: xs:string</text><rect x="1120" y="2270" width="200" height="40" style="fill:white;stroke:black;stroke-width:1" /><text x="1130" y="2280" font-size="10" style="fill:blue">xs:attribute</text><path d="M1100 2290 C1120 2290 1100 2290 1120 2290" style="fill:transparent;stroke:black" /><text x="1130" y="2290" font-size="8" style="fill:black">name: enlace</text><text x="1130" y="2300" font-size="8" style="fill:black">type: xs:string</text><text x="1130" y="2310" font-size="8" style="fill:black">use: required</text><rect x="240" y="2520" width="200" height="40" style="fill:white;stroke:black;stroke-width:1" /><text x="250" y="2530" font-size="10" style="fill:blue">xs:element</text><path d="M220 40 C240 40 220 2540 240 2540" style="fill:transparent;stroke:black" /><text x="250" y="2540" font-size="8" style="fill:black">name: comentarios</text><rect x="460" y="2520" width="200" height="40" style="fill:white;stroke:black;stroke-width:1" /><text x="470" y="2530" font-size="10" style="fill:blue">xs:complexType</text><path d="M440 2540 C460 2540 440 2540 460 2540" style="fill:transparent;stroke:black" /><rect x="680" y="2520" width="200" height="40" style="fill:white;stroke:black;stroke-width:1" /><text x="690" y="2530" font-size="10" style="fill:blue">xs:sequence</text><path d="M660 2540 C680 2540 660 2540 680 2540" style="fill:transparent;stroke:black" /><rect x="900" y="2520" width="200" height="40" style="fill:white;stroke:black;stroke-width:1" /><text x="910" y="2530" font-size="10" style="fill:blue">xs:element</text><path d="M880 2540 C900 2540 880 2540 900 2540" style="fill:transparent;stroke:black" /><text x="910" y="2540" font-size="8" style="fill:black">minOccurs: 0</text><text x="910" y="2550" font-size="8" style="fill:black">maxOccurs: unbounded</text><text x="910" y="2560" font-size="8" style="fill:black">ref: comentario</text><rect x="240" y="2720" width="200" height="40" style="fill:white;stroke:black;stroke-width:1" /><text x="250" y="2730" font-size="10" style="fill:blue">xs:element</text><path d="M220 40 C240 40 220 2740 240 2740" style="fill:transparent;stroke:black" /><text x="250" y="2740" font-size="8" style="fill:black">name: comentario</text><rect x="460" y="2720" width="200" height="40" style="fill:white;stroke:black;stroke-width:1" /><text x="470" y="2730" font-size="10" style="fill:blue">xs:complexType</text><path d="M440 2740 C460 2740 440 2740 460 2740" style="fill:transparent;stroke:black" /><rect x="680" y="2720" width="200" height="40" style="fill:white;stroke:black;stroke-width:1" /><text x="690" y="2730" font-size="10" style="fill:blue">xs:simpleContent</text><path d="M660 2740 C680 2740 660 2740 680 2740" style="fill:transparent;stroke:black" /><rect x="900" y="2720" width="200" height="40" style="fill:white;stroke:black;stroke-width:1" /><text x="910" y="2730" font-size="10" style="fill:blue">xs:extension</text><path d="M880 2740 C900 2740 880 2740 900 2740" style="fill:transparent;stroke:black" /><text x="910" y="2740" font-size="8" style="fill:black">base: xs:string</text><rect x="1120" y="2720" width="200" height="40" style="fill:white;stroke:black;stroke-width:1" /><text x="1130" y="2730" font-size="10" style="fill:blue">xs:attribute</text><path d="M1100 2740 C1120 2740 1100 2740 1120 2740" style="fill:transparent;stroke:black" /><text x="1130" y="2740" font-size="8" style="fill:black">name: comentario</text><text x="1130" y="2750" font-size="8" style="fill:black">type: xs:string</text><text x="1130" y="2760" font-size="8" style="fill:black">use: required</text></svg>